<svg width="14" height="10" viewBox="0 0 14 10" fill="none" xmlns="http://www.w3.org/2000/svg">
<g id="Logo" clip-path="url(#clip0_212_1148)">
<path id="Vector" d="M12.9709 0.648032C12.9709 0.803612 13.0986 0.929732 13.2561 0.929732H13.5413C13.6988 0.929732 13.8265 0.803612 13.8265 0.648032C13.8265 0.492454 13.6988 0.366333 13.5413 0.366333H13.2561C13.0986 0.366333 12.9709 0.492454 12.9709 0.648032Z" fill="#212326"/>
<path id="Vector_2" d="M4.70078 9.38073H6.08613L5.68282 8.98234C5.57587 8.87669 5.43079 8.81733 5.27953 8.81733H4.70078C2.49579 8.81733 0.708295 7.05163 0.708295 4.87353C0.708295 2.69543 2.49579 0.929735 4.70078 0.929733H9.26363C11.4686 0.929733 13.2561 2.69543 13.2561 4.87353C13.2561 7.05163 11.4686 8.81733 9.26363 8.81733H7.55676C7.32985 8.81733 7.11225 8.72829 6.95179 8.56982L6.47931 8.10307C6.21191 7.83893 5.8492 7.69053 5.47104 7.69053H4.70078C3.12578 7.69053 1.84901 6.42933 1.84901 4.87353C1.84901 3.31774 3.12578 2.05653 4.70078 2.05653H9.26363C10.8386 2.05653 12.1154 3.31774 12.1154 4.87353C12.1154 6.42933 10.8386 7.69053 9.26363 7.69053H8.16765C7.94074 7.69053 7.72314 7.60149 7.56269 7.44302L7.09018 6.97627C6.82278 6.71213 6.4601 6.56373 6.08193 6.56373H4.70078C3.7558 6.56373 2.98972 5.80699 2.98972 4.87353C2.98972 3.94007 3.7558 3.18333 4.70078 3.18333H9.26363C10.2086 3.18333 10.9747 3.94007 10.9747 4.87353C10.9747 5.79561 10.2272 6.54525 9.29812 6.56339L9.29794 6.56373H8.8806C8.65369 6.56373 8.43609 6.47469 8.27563 6.31622L7.80313 5.84948C7.58372 5.63272 7.30017 5.49392 6.99653 5.45108L6.9822 5.43693H4.70078C4.38579 5.43693 4.13043 5.18469 4.13043 4.87353C4.13043 4.56238 4.38579 4.31013 4.70078 4.31013H9.26363C9.57862 4.31013 9.83398 4.56238 9.83398 4.87353C9.83398 5.18469 9.57862 5.43693 9.26363 5.43693H8.12291L8.52622 5.83532C8.63318 5.94097 8.77825 6.00033 8.92951 6.00033H9.26363C9.89362 6.00033 10.4043 5.49584 10.4043 4.87353C10.4043 4.25122 9.89362 3.74673 9.26363 3.74673H4.70078C4.07079 3.74673 3.56007 4.25122 3.56007 4.87353C3.56007 5.49584 4.07079 6.00033 4.70078 6.00033H6.79488C7.02179 6.00033 7.23939 6.08937 7.39984 6.24784L7.87235 6.71459C8.13975 6.97873 8.50243 7.12713 8.8806 7.12713H9.40621V7.1228C10.5998 7.0501 11.545 6.07085 11.545 4.87353C11.545 3.62891 10.5236 2.61993 9.26363 2.61993H4.70078C3.4408 2.61993 2.41936 3.62891 2.41936 4.87353C2.41936 6.11817 3.4408 7.12713 4.70078 7.12713H6.08193C6.30884 7.12713 6.52644 7.21617 6.6869 7.37464L7.1594 7.84139C7.42681 8.10553 7.78948 8.25393 8.16765 8.25393H9.26363C11.1536 8.25393 12.6858 6.74048 12.6858 4.87353C12.6858 3.00658 11.1536 1.49313 9.26363 1.49313H4.70078C2.81078 1.49313 1.27865 3.00658 1.27865 4.87353C1.27865 6.74048 2.81078 8.25393 4.70078 8.25393H5.47104C5.69795 8.25393 5.91555 8.34297 6.076 8.50144L6.54851 8.96819C6.81591 9.23233 7.17859 9.38073 7.55676 9.38073H9.26363C11.7836 9.38073 13.8265 7.36279 13.8265 4.87353C13.8265 2.38427 11.7836 0.366333 9.26363 0.366333L4.70078 0.366334C2.18079 0.366334 0.137939 2.38428 0.137939 4.87353C0.13794 7.36279 2.1808 9.38073 4.70078 9.38073Z" fill="#212326"/>
</g>
<defs>
<clipPath id="clip0_212_1148">
<rect width="13.6885" height="9.0144" fill="white" transform="translate(0.137939 0.366333)"/>
</clipPath>
</defs>
</svg>
