<svg width="20" height="11" viewBox="0 0 20 11" fill="none" xmlns="http://www.w3.org/2000/svg">
<g id="Logo" clip-path="url(#clip0_212_1156)">
<path id="Vector" d="M19.0253 4.26085C19.0272 4.24693 19.0272 4.23285 19.0253 4.21893C19.0271 4.20759 19.0271 4.19602 19.0253 4.18465L18.8893 3.20554C18.8696 3.0884 18.8172 2.97891 18.7377 2.88933L18.7144 2.86266L18.6717 2.82075L16.3167 0.832046L16.3828 0.896818C16.3287 0.833422 16.2609 0.782714 16.1842 0.748429C16.1075 0.714143 16.024 0.697152 15.9398 0.698708H15.2247C15.1084 0.696449 14.9948 0.732691 14.9022 0.801573C14.8049 0.733106 14.6877 0.69705 14.568 0.698708H13.8529C13.7591 0.697216 13.6666 0.720034 13.5847 0.764857C13.5029 0.80968 13.4345 0.874917 13.3866 0.953961C13.3127 1.06686 13.285 1.20288 13.3089 1.33494L13.3983 1.95212C13.339 1.91921 13.272 1.90214 13.2039 1.9026H9.74146C9.61724 1.90336 9.49586 1.93906 9.39171 2.00546C9.29099 2.06726 9.21015 2.15576 9.15855 2.26071L8.89041 2.03594C8.78487 1.94021 8.64557 1.88832 8.50181 1.89117H3.06908C2.94441 1.89339 2.82251 1.92754 2.71546 1.99022C2.569 2.07426 2.46167 2.21091 2.41623 2.3712L0.690811 8.02871C0.658572 8.12194 0.655401 8.22247 0.681703 8.31748C0.708005 8.41245 0.762589 8.49764 0.838483 8.56209C0.858259 8.57852 0.879023 8.59379 0.900662 8.60779C0.900662 8.60779 0.865681 8.58493 0.846251 8.5659L3.20122 10.5584C3.30084 10.6483 3.43109 10.6986 3.56648 10.6994H9.04198C9.16702 10.6962 9.289 10.6607 9.39561 10.5965C9.4559 10.5642 9.50984 10.5216 9.55493 10.4708L9.57437 10.4441L9.60545 10.406L9.62876 10.3641L9.88525 10.5813C9.98344 10.6676 10.1109 10.7151 10.2428 10.7146H15.7299C15.8548 10.7105 15.9766 10.6751 16.0835 10.6117C16.1425 10.5775 16.1961 10.5351 16.2429 10.486L16.2623 10.4593L16.2934 10.4213C16.3099 10.3971 16.3242 10.3717 16.3361 10.345C16.3488 10.322 16.3592 10.2977 16.3672 10.2727L17.9411 5.10662V5.0609C17.943 5.04317 17.943 5.02529 17.9411 5.00756V4.97329C17.9429 4.96192 17.9429 4.95035 17.9411 4.93898C17.9428 4.91489 17.9428 4.8907 17.9411 4.86659H18.4463C18.4902 4.87055 18.5344 4.87055 18.5784 4.86659H18.6134C18.6418 4.85828 18.6692 4.84676 18.695 4.83231H18.7338L18.8038 4.77898L18.8349 4.75611L18.8893 4.68753V4.66469L18.9281 4.59991C18.926 4.58732 18.926 4.57442 18.9281 4.56183C18.9261 4.55564 18.9261 4.54896 18.9281 4.54277C18.9364 4.52044 18.9429 4.4975 18.9476 4.47419C18.9457 4.46668 18.9457 4.45884 18.9476 4.45133C18.9457 4.43998 18.9457 4.42839 18.9476 4.41705C18.9476 4.41705 19.0253 4.26846 19.0253 4.26085Z" fill="black"/>
<path id="Vector_2" d="M8.6611 2.32548C8.68173 2.34377 8.69614 2.36782 8.70239 2.39438C8.70866 2.42095 8.70644 2.44876 8.69609 2.47406L6.97456 8.12776C6.95288 8.18949 6.90853 8.24109 6.85021 8.27254C6.80274 8.30367 6.74781 8.32205 6.69086 8.32588H1.21929C1.17256 8.32368 1.12829 8.3047 1.09493 8.27254C1.07509 8.25454 1.06116 8.23115 1.05493 8.20539C1.0487 8.1796 1.05045 8.15258 1.05996 8.12776L2.78537 2.47406C2.80525 2.41155 2.84821 2.35857 2.90584 2.32548C2.95409 2.29659 3.00876 2.27959 3.06517 2.27595H8.53674C8.58311 2.27639 8.62756 2.2941 8.6611 2.32548ZM5.80484 6.98864L6.83465 3.61318H3.9512L2.92527 6.98864H5.80484ZM13.884 2.38262C13.9026 2.40389 13.926 2.42076 13.9522 2.43197C13.9785 2.44318 14.0069 2.44845 14.0355 2.44739H14.7467C14.7738 2.44765 14.8004 2.44114 14.8243 2.42847C14.8481 2.41581 14.8682 2.3974 14.8827 2.375C14.8953 2.3575 14.9042 2.3377 14.9089 2.31675C14.9136 2.29581 14.9139 2.27416 14.9099 2.25309L14.77 1.24731C14.7567 1.20076 14.7328 1.15778 14.7001 1.12159C14.6814 1.10032 14.6581 1.08345 14.6318 1.07224C14.6056 1.06103 14.5771 1.05576 14.5485 1.05682H13.8374C13.8103 1.05656 13.7836 1.06307 13.7598 1.07574C13.736 1.08841 13.7159 1.10681 13.7013 1.12921C13.6741 1.18255 13.6625 1.21683 13.6741 1.24731L13.8179 2.25309C13.8253 2.30207 13.8484 2.34745 13.884 2.38262ZM16.1418 1.23969C16.1285 1.19314 16.1045 1.15016 16.0718 1.11397C16.054 1.09278 16.0313 1.07592 16.0057 1.06468C15.9801 1.05345 15.9522 1.04815 15.9242 1.0492H15.2091C15.1825 1.04846 15.1561 1.05479 15.1329 1.06754C15.1096 1.08028 15.0903 1.09896 15.077 1.12159C15.0511 1.15539 15.04 1.19784 15.0459 1.23969L15.1897 2.24547C15.1987 2.29393 15.2216 2.33886 15.2558 2.375C15.2748 2.39586 15.2982 2.41244 15.3243 2.42362C15.3505 2.4348 15.3788 2.4403 15.4073 2.43977H16.1224C16.1489 2.44011 16.1751 2.43361 16.1983 2.4209C16.2215 2.4082 16.2409 2.38975 16.2545 2.36739C16.268 2.35034 16.2774 2.33054 16.2822 2.30945C16.2869 2.28835 16.2867 2.26649 16.2817 2.24547L16.1418 1.23969ZM13.2583 2.7636L13.1884 2.26833H9.74143C9.68731 2.27125 9.63495 2.28836 9.58986 2.31786C9.56125 2.33316 9.53633 2.35437 9.51687 2.38002C9.49744 2.40567 9.4839 2.43515 9.47719 2.46644L9.18961 3.41126C9.17813 3.43487 9.1742 3.46136 9.17836 3.4872C9.18254 3.51304 9.19458 3.53703 9.21292 3.55604C9.24569 3.58623 9.28846 3.60384 9.3334 3.60557H13.5226L12.4928 6.98103H8.31524C8.26138 6.98223 8.20892 6.99806 8.1637 7.02673C8.10874 7.06096 8.06859 7.11387 8.051 7.17532L7.75954 8.12015C7.75003 8.14439 7.74753 8.17073 7.75232 8.19627C7.75714 8.22184 7.76903 8.24558 7.78673 8.26491C7.81848 8.29713 7.86158 8.31621 7.90721 8.31824H13.3943C13.4511 8.31346 13.5058 8.29516 13.5536 8.26491C13.611 8.23331 13.6541 8.1816 13.6741 8.12015L15.2519 2.95409H13.4759C13.4478 2.95463 13.4198 2.94951 13.3937 2.93902C13.3677 2.92854 13.3441 2.91291 13.3244 2.89313C13.2923 2.85858 13.2695 2.81666 13.2583 2.77122V2.7636Z" fill="white"/>
</g>
<defs>
<clipPath id="clip0_212_1156">
<rect width="18.3627" height="10.016" fill="white" transform="translate(0.664062 0.698608)"/>
</clipPath>
</defs>
</svg>
