<svg width="20" height="11" viewBox="0 0 20 11" fill="none" xmlns="http://www.w3.org/2000/svg">
<g id="Logo" clip-path="url(#clip0_212_1128)">
<path id="Vector" d="M19.2993 4.26085C19.3013 4.24693 19.3013 4.23285 19.2993 4.21893C19.3012 4.20759 19.3012 4.19602 19.2993 4.18465L19.1633 3.20554C19.1437 3.0884 19.0912 2.97891 19.0118 2.88933L18.9884 2.86266L18.9457 2.82075L16.5907 0.832046L16.6568 0.896818C16.6028 0.833422 16.5349 0.782714 16.4583 0.748429C16.3816 0.714143 16.298 0.697152 16.2138 0.698708H15.4988C15.3825 0.696449 15.2689 0.732691 15.1762 0.801573C15.0789 0.733106 14.9618 0.69705 14.842 0.698708H14.127C14.0332 0.697216 13.9407 0.720034 13.8588 0.764857C13.7769 0.80968 13.7086 0.874917 13.6607 0.953961C13.5868 1.06686 13.559 1.20288 13.5829 1.33494L13.6723 1.95212C13.6131 1.91921 13.5461 1.90214 13.478 1.9026H10.0155C9.89128 1.90336 9.76991 1.93906 9.66576 2.00546C9.56504 2.06726 9.48419 2.15576 9.4326 2.26071L9.16445 2.03594C9.05892 1.94021 8.91962 1.88832 8.77586 1.89117H3.34313C3.21846 1.89339 3.09656 1.92754 2.98951 1.99022C2.84305 2.07426 2.73572 2.21091 2.69027 2.3712L0.964859 8.02871C0.93262 8.12194 0.929448 8.22247 0.955751 8.31748C0.982053 8.41245 1.03664 8.49764 1.11253 8.56209C1.13231 8.57852 1.15307 8.59379 1.17471 8.60779C1.17471 8.60779 1.13973 8.58493 1.1203 8.5659L3.47527 10.5584C3.57489 10.6483 3.70513 10.6986 3.84053 10.6994H9.31602C9.44107 10.6962 9.56305 10.6607 9.66966 10.5965C9.72995 10.5642 9.78389 10.5216 9.82898 10.4708L9.84841 10.4441L9.8795 10.406L9.90281 10.3641L10.1593 10.5813C10.2575 10.6676 10.3849 10.7151 10.5168 10.7146H16.0039C16.1289 10.7105 16.2506 10.6751 16.3576 10.6117C16.4165 10.5775 16.4701 10.5351 16.5169 10.486L16.5363 10.4593L16.5674 10.4213C16.5839 10.3971 16.5983 10.3717 16.6102 10.345C16.6229 10.322 16.6333 10.2977 16.6412 10.2727L18.2151 5.10662V5.0609C18.217 5.04317 18.217 5.02529 18.2151 5.00756V4.97329C18.217 4.96192 18.217 4.95035 18.2151 4.93898C18.2169 4.91489 18.2169 4.8907 18.2151 4.86659H18.7203C18.7642 4.87055 18.8085 4.87055 18.8524 4.86659H18.8874C18.9158 4.85828 18.9432 4.84676 18.969 4.83231H19.0079L19.0778 4.77898L19.1089 4.75611L19.1633 4.68753V4.66469L19.2022 4.59991C19.2 4.58732 19.2 4.57442 19.2022 4.56183C19.2001 4.55564 19.2001 4.54896 19.2022 4.54277C19.2104 4.52044 19.2169 4.4975 19.2216 4.47419C19.2198 4.46668 19.2198 4.45884 19.2216 4.45133C19.2197 4.43998 19.2197 4.42839 19.2216 4.41705C19.2216 4.41705 19.2993 4.26846 19.2993 4.26085Z" fill="black"/>
<path id="Vector_2" d="M8.93514 2.32548C8.95578 2.34377 8.97019 2.36782 8.97643 2.39438C8.98271 2.42095 8.98049 2.44876 8.97013 2.47406L7.24861 8.12776C7.22693 8.18949 7.18258 8.24109 7.12425 8.27254C7.07679 8.30367 7.02186 8.32205 6.96491 8.32588H1.49334C1.44661 8.32368 1.40234 8.3047 1.36898 8.27254C1.34914 8.25454 1.33521 8.23115 1.32898 8.20539C1.32275 8.1796 1.3245 8.15258 1.33401 8.12776L3.05942 2.47406C3.0793 2.41155 3.12226 2.35857 3.17989 2.32548C3.22813 2.29659 3.28281 2.27959 3.33922 2.27595H8.81079C8.85715 2.27639 8.90161 2.2941 8.93514 2.32548ZM6.07888 6.98864L7.1087 3.61318H4.22525L3.19931 6.98864H6.07888ZM14.158 2.38262C14.1767 2.40389 14.2 2.42076 14.2263 2.43197C14.2525 2.44318 14.281 2.44845 14.3096 2.44739H15.0207C15.0478 2.44765 15.0745 2.44114 15.0983 2.42847C15.1221 2.41581 15.1422 2.3974 15.1567 2.375C15.1694 2.3575 15.1783 2.3377 15.183 2.31675C15.1876 2.29581 15.188 2.27416 15.1839 2.25309L15.044 1.24731C15.0307 1.20076 15.0068 1.15778 14.9741 1.12159C14.9554 1.10032 14.9321 1.08345 14.9059 1.07224C14.8796 1.06103 14.8511 1.05576 14.8225 1.05682H14.1114C14.0843 1.05656 14.0576 1.06307 14.0338 1.07574C14.01 1.08841 13.9899 1.10681 13.9754 1.12921C13.9482 1.18255 13.9365 1.21683 13.9482 1.24731L14.092 2.25309C14.0993 2.30207 14.1225 2.34745 14.158 2.38262ZM16.4158 1.23969C16.4025 1.19314 16.3786 1.15016 16.3459 1.11397C16.328 1.09278 16.3054 1.07592 16.2797 1.06468C16.2541 1.05345 16.2262 1.04815 16.1982 1.0492H15.4832C15.4565 1.04846 15.4302 1.05479 15.4069 1.06754C15.3837 1.08028 15.3644 1.09896 15.3511 1.12159C15.3252 1.15539 15.314 1.19784 15.32 1.23969L15.4637 2.24547C15.4728 2.29393 15.4957 2.33886 15.5298 2.375C15.5488 2.39586 15.5722 2.41244 15.5984 2.42362C15.6245 2.4348 15.6528 2.4403 15.6814 2.43977H16.3964C16.423 2.44011 16.4491 2.43361 16.4723 2.4209C16.4955 2.4082 16.5149 2.38975 16.5285 2.36739C16.5421 2.35034 16.5515 2.33054 16.5562 2.30945C16.5609 2.28835 16.5607 2.26649 16.5557 2.24547L16.4158 1.23969ZM13.5324 2.7636L13.4624 2.26833H10.0155C9.96136 2.27125 9.909 2.28836 9.86391 2.31786C9.8353 2.33316 9.81038 2.35437 9.79092 2.38002C9.77149 2.40567 9.75794 2.43515 9.75124 2.46644L9.46366 3.41126C9.45218 3.43487 9.44825 3.46136 9.45241 3.4872C9.45659 3.51304 9.46863 3.53703 9.48697 3.55604C9.51974 3.58623 9.56251 3.60384 9.60745 3.60557H13.7966L12.7668 6.98103H8.58929C8.53542 6.98223 8.48296 6.99806 8.43775 7.02673C8.38278 7.06096 8.34264 7.11387 8.32504 7.17532L8.03359 8.12015C8.02408 8.14439 8.02158 8.17073 8.02637 8.19627C8.03119 8.22184 8.04308 8.24558 8.06078 8.26491C8.09253 8.29713 8.13563 8.31621 8.18125 8.31824H13.6684C13.7251 8.31346 13.7798 8.29516 13.8277 8.26491C13.8851 8.23331 13.9281 8.1816 13.9482 8.12015L15.5259 2.95409H13.75C13.7218 2.95463 13.6938 2.94951 13.6678 2.93902C13.6417 2.92854 13.6181 2.91291 13.5984 2.89313C13.5663 2.85858 13.5436 2.81666 13.5324 2.77122V2.7636Z" fill="white"/>
</g>
<defs>
<clipPath id="clip0_212_1128">
<rect width="18.3627" height="10.016" fill="white" transform="translate(0.93811 0.698608)"/>
</clipPath>
</defs>
</svg>
